<mxfile host="app.diagrams.net" modified="2024-01-25T23:04:38.359Z" agent="Mozilla/5.0 (X11; Linux x86_64; rv:120.0) Gecko/20100101 Firefox/120.0" version="23.0.2" etag="aoHFIY4NbGUEhyepYFpJ" type="github">
  <diagram name="PÃ¡gina-1" id="VlTwJL9zIQAma3kQGkpB">
    <mxGraphModel>
      <root>
        <mxCell id="0" />
        <mxCell id="1" parent="0" />
      </root>
    </mxGraphModel>
  </diagram>
</mxfile>
